<svg xmlns="http://www.w3.org/2000/svg" viewBox="0 0 1920 420">
  <defs>
    <style>.cls-1{opacity:1;}.cls-2,.cls-3{fill:#fff;}.cls-3{opacity:1;}</style>
  </defs>
  <g id="Layer_1" data-name="Layer 1" class="cls-1">
    <path id="_70" data-name="70" class="cls-2" d="M278,660.13C438.93,663,562.9,810.55,742,818.42c181.69,8,203.61-64.15,385-53.51,154,9,246,45,413,77.29,97.46,18.83,179-53.12,380-133V1080H0V773.09C94,668.31,195.25,658.64,278,660.13Z" transform="translate(0 -660)"/>
    <path id="_70-2" data-name="70" class="cls-3" d="M278,660.13C438.93,663,562.9,810.55,742,818.42c181.69,8,203.61-64.15,385-53.51,154,9,246,45,413,77.29,97.46,18.83,179-53.12,380-133V1080H0V773.09C94,668.31,195.25,658.64,278,660.13Z" transform="translate(0 -660)"/>
  </g>
</svg>