<svg xmlns="http://www.w3.org/2000/svg" viewBox="0 0 1920 335">
  <defs>
    <style>.cls-1,.cls-3{opacity:0.7;}.cls-2,.cls-3{fill:#fff;}</style>
  </defs>
  <g id="Layer_1" data-name="Layer 1" class="cls-1">
    <path id="_90" data-name="90" class="cls-2" d="M1517,788.64C1350.53,793,1290.23,885.94,1074,913c-186.52,23.34-325.11-25-417-46.19C407.14,809.33,324.75,721.72,183,750.74,94.39,768.88,35,821.86,0,861.28V1080H1920V929.19C1747.2,807.53,1609.72,786.19,1517,788.64Z" transform="translate(0 -745)"/>
    <path id="_90-2" data-name="90" class="cls-3" d="M1517,788.64C1350.53,793,1290.23,885.94,1074,913c-186.52,23.34-325.11-25-417-46.19C407.14,809.33,324.75,721.72,183,750.74,94.39,768.88,35,821.86,0,861.28V1080H1920V929.19C1747.2,807.53,1609.72,786.19,1517,788.64Z" transform="translate(0 -745)"/>
  </g>
</svg>