<svg xmlns="http://www.w3.org/2000/svg" viewBox="0 0 1920 420"><defs><style>.cls-1{opacity:0.9;}.cls-2,.cls-3{fill:#fff;}.cls-3{opacity:0.8;}</style></defs><g id="Layer_1" data-name="Layer 1" class="cls-1"><path id="_80" data-name="80" class="cls-2" d="M1642,660.13c-160.93,2.91-284.9,150.42-464,158.29-181.69,8-203.61-64.15-385-53.51-154,9-246,45-413,77.29C282.54,861,201,789.08,0,709.18V1080H1920V773.09C1826,668.31,1724.75,658.64,1642,660.13Z" transform="translate(0 -660)"/><path id="_80-2" data-name="80" class="cls-3" d="M1642,660.13c-160.93,2.91-284.9,150.42-464,158.29-181.69,8-203.61-64.15-385-53.51-154,9-246,45-413,77.29C282.54,861,201,789.08,0,709.18V1080H1920V773.09C1826,668.31,1724.75,658.64,1642,660.13Z" transform="translate(0 -660)"/></g></svg>